HIERARCHY
ROOT Hips
{
	OFFSET 0.000000 0.956738 0.000000
	CHANNELS 6 Xposition Yposition Zposition Zrotation Yrotation Xrotation 
	JOINT LeftUpLeg
	{
		OFFSET 0.054352 -0.121812 -0.010322
		CHANNELS 3 Zrotation Yrotation Xrotation
		JOINT LeftLeg
		{
			OFFSET 0.055690 -0.370613 0.007578
			CHANNELS 3 Zrotation Yrotation Xrotation
			JOINT LeftFoot
			{
				OFFSET -0.022228 -0.421926 -0.109960
				CHANNELS 3 Zrotation Yrotation Xrotation
				End Site #name: LeftToeBase
				{
					OFFSET 0.044016 -0.040001 0.129941
				}
			}
		}
	}
	JOINT rightUpLeg
	{
		OFFSET -0.066085 -0.126423 -0.009339
		CHANNELS 3 Zrotation Yrotation Xrotation
		JOINT RightLeg
		{
			OFFSET -0.077444 -0.360477 -0.011330
			CHANNELS 3 Zrotation Yrotation Xrotation
			JOINT RightFoot
			{
				OFFSET 0.011959 -0.425344 -0.061614
				CHANNELS 3 Zrotation Yrotation Xrotation
				End Site #name: RightToeBase
				{
					OFFSET -0.023550 -0.045741 0.145412
				}
			}
		}
	}
	JOINT Spine
	{
		OFFSET 0.012275 0.080114 -0.042920
		CHANNELS 3 Zrotation Yrotation Xrotation
		JOINT Spine1
		{
			OFFSET 0.012532 0.157895 0.021250
			CHANNELS 3 Zrotation Yrotation Xrotation
			JOINT Spine2
			{
				OFFSET -0.001246 0.069063 0.003974
				CHANNELS 3 Zrotation Yrotation Xrotation
				JOINT Neck
				{
					OFFSET -0.005591 0.219413 -0.056434
					CHANNELS 3 Zrotation Yrotation Xrotation
					End Site #name: Head
					{
						OFFSET -0.002701 0.062910 0.037230
					}
				}
				JOINT LeftShoulder
				{
					OFFSET 0.075354 0.129619 -0.026932
					CHANNELS 3 Zrotation Yrotation Xrotation
					JOINT LeftArm
					{
						OFFSET 0.129243 -0.041585 -0.012286
						CHANNELS 3 Zrotation Yrotation Xrotation
						JOINT LeftForeArm
						{
							OFFSET 0.039889 -0.281676 -0.003437
							CHANNELS 3 Zrotation Yrotation Xrotation
							End Site #name: LeftHand
							{
								OFFSET 0.024356 -0.205430 0.164959
							}
						}
					}
				}
				JOINT RightShoulder
				{
					OFFSET -0.078434 0.135393 -0.043228
					CHANNELS 3 Zrotation Yrotation Xrotation
					JOINT RightArm
					{
						OFFSET -0.116214 -0.018254 0.000048
						CHANNELS 3 Zrotation Yrotation Xrotation
						JOINT RightForeArm
						{
							OFFSET -0.078028 -0.246625 0.052709
							CHANNELS 3 Zrotation Yrotation Xrotation
							End Site #name: RightHand
							{
								OFFSET 0.037103 -0.131287 0.243188
							}
						}
					}
				}
			}
		}
	}
}
MOTION
Frames: 19
Frame Time: 0.041667
0.000000 0.956738 0.000000 0.000000 0.000000 -0.000000 -0.000000 0.000000 -0.000000 0.000000 0.000000 0.000000 0.000000 0.000000 0.000000 0.000000 0.000000 0.000000 -0.000000 0.000000 -0.000000 0.000000 0.000000 0.000000 0.000000 0.000000 0.000000 0.000000 0.000000 0.000000 -0.000000 -0.000000 -0.000000 0.000000 0.000000 0.000000 0.000000 0.000000 0.000000 0.000000 0.000000 0.000000 0.000000 0.000000 0.000000 0.000000 0.000000 0.000000 0.000000 0.000000 0.000000 0.000000 0.000000 0.000000 
0.000115 0.956281 0.000573 -0.018015 0.060198 0.011093 0.085666 -0.018505 -0.135494 -0.096553 0.019068 0.117653 -0.011573 -0.016887 0.018811 -0.080523 0.000870 0.007757 -0.012913 0.000420 -0.051379 0.123355 0.329052 0.120511 -0.042264 0.000335 0.067762 0.191358 -0.010358 0.039861 0.038816 0.056829 -0.193218 -0.401340 0.247724 0.213176 0.012342 0.084102 0.028242 0.162574 -0.007984 -0.042810 -0.212019 -0.202786 -0.266693 -0.234162 0.229711 -0.036660 0.073895 0.036658 -0.065776 0.090334 0.090961 -0.272331 
0.000272 0.956076 0.001170 -0.047496 0.101118 0.065995 0.194364 -0.031931 -0.241716 -0.215554 0.050133 0.119143 -0.033096 -0.050319 0.051907 -0.095120 -0.002105 0.023808 -0.034284 -0.000850 -0.204677 0.214285 0.571957 0.206169 -0.098000 0.006002 0.091544 0.320339 -0.019184 -0.049381 0.131785 0.111527 -0.247964 -0.860303 0.512960 0.068946 -0.055322 0.235231 0.070291 0.279200 -0.014405 -0.079058 -0.266657 -0.286510 -0.588360 -0.465967 0.348236 -0.056344 0.030663 0.142388 -0.428574 0.315382 0.356075 -0.831224 
0.000441 0.955927 0.001804 -0.077316 0.121033 0.111946 0.289168 -0.029544 -0.240060 -0.314733 0.080877 0.022821 -0.065184 -0.165492 0.041929 -0.085752 0.002691 0.000017 -0.059287 -0.000090 -0.303063 0.283693 0.771704 0.243411 -0.138291 0.013235 0.068784 0.370270 -0.022861 -0.105173 0.212911 0.152646 -0.252946 -1.118262 0.657332 -0.084599 -0.063422 0.330165 0.099977 0.374215 -0.028838 -0.175538 -0.213794 -0.279798 -0.882936 -0.759981 0.535524 -0.088075 -0.194619 0.312178 -1.122637 0.662939 0.753748 -1.787242 
0.000627 0.955763 0.002483 -0.081662 0.131359 0.147906 0.331805 -0.018407 -0.170993 -0.391341 0.108619 -0.135630 -0.100745 -0.295670 0.028730 -0.079594 0.010852 -0.039001 -0.105492 0.005316 -0.343127 0.334976 0.945493 0.222064 -0.152741 0.016094 0.057173 0.345279 -0.021956 -0.139160 0.287344 0.190465 -0.258229 -1.269109 0.739918 -0.199084 -0.002177 0.410933 0.131962 0.442427 -0.041087 -0.259249 -0.080051 -0.198133 -1.109282 -1.082338 0.827791 -0.138498 -0.494369 0.488462 -1.900239 1.027562 1.156703 -2.916789 
0.000843 0.955585 0.003193 -0.072961 0.143454 0.175281 0.333027 -0.010460 -0.117224 -0.462515 0.133334 -0.265250 -0.123185 -0.406387 -0.005166 -0.073602 0.014783 -0.058229 -0.159944 0.011796 -0.385178 0.384863 1.131949 0.170046 -0.141291 0.014212 0.061472 0.261349 -0.017972 -0.186362 0.377629 0.233848 -0.254487 -1.381245 0.799215 -0.315407 0.082475 0.490575 0.166012 0.531586 -0.044787 -0.279839 0.083506 -0.094433 -1.362857 -1.400798 1.167894 -0.198690 -0.884631 0.669746 -2.775921 1.404665 1.544699 -4.284870 
0.001094 0.955408 0.003912 -0.057576 0.155743 0.191621 0.294366 -0.006975 -0.087997 -0.504440 0.148376 -0.353439 -0.152022 -0.557282 -0.056056 -0.072530 0.013402 -0.051931 -0.200832 0.015688 -0.448495 0.418542 1.271454 0.110947 -0.096629 0.006690 0.080418 0.146187 -0.012110 -0.220733 0.462532 0.283323 -0.264503 -1.433968 0.824278 -0.415636 0.142917 0.596406 0.206211 0.631560 -0.043994 -0.266877 0.317956 0.066983 -1.632893 -1.718234 1.572176 -0.271890 -1.355900 0.861661 -3.770246 1.774854 1.895371 -5.847728 
0.001412 0.955285 0.004643 -0.033576 0.168296 0.208485 0.227209 -0.006696 -0.076500 -0.524561 0.157071 -0.427233 -0.200652 -0.746623 -0.083144 -0.098208 0.011241 -0.038119 -0.208798 0.014547 -0.524078 0.431405 1.344714 0.052665 -0.042002 -0.001325 0.088321 0.038982 -0.006280 -0.228156 0.517968 0.332737 -0.285262 -1.423220 0.810899 -0.534460 0.153587 0.707523 0.243165 0.737756 -0.042907 -0.251115 0.597480 0.273363 -1.850715 -2.073029 2.047804 -0.360624 -1.917080 1.070082 -4.921726 2.123346 2.191879 -7.555420 
0.001808 0.955168 0.005361 -0.014017 0.183572 0.226605 0.163372 -0.005491 -0.059341 -0.545416 0.165847 -0.499386 -0.243483 -0.919040 -0.111625 -0.135515 0.013760 -0.044485 -0.206398 0.013035 -0.563372 0.434367 1.393058 -0.017126 0.008025 -0.007965 0.086661 -0.033334 -0.002387 -0.234874 0.538042 0.382363 -0.305642 -1.337897 0.750468 -0.712942 0.106258 0.839359 0.280843 0.837009 -0.042951 -0.244082 0.880826 0.490426 -2.014335 -2.481737 2.593478 -0.466230 -2.538797 1.299707 -6.235446 2.432474 2.410972 -9.334795 
0.002286 0.955016 0.006047 -0.001700 0.201781 0.248660 0.106880 -0.000089 -0.015232 -0.563847 0.175918 -0.612612 -0.273073 -1.039703 -0.132437 -0.176662 0.022851 -0.081136 -0.209251 0.014294 -0.534650 0.437338 1.446765 -0.096080 0.053917 -0.013474 0.077855 -0.082825 0.000060 -0.250836 0.540073 0.431846 -0.341548 -1.195676 0.654908 -0.933911 0.011434 1.022952 0.330072 0.928475 -0.040869 -0.221607 1.123611 0.678351 -2.145239 -2.985516 3.174867 -0.585193 -3.223963 1.554097 -7.741337 2.741722 2.638646 -11.179330 
0.002849 0.954838 0.006695 0.001959 0.221493 0.253428 0.046989 0.009280 0.055516 -0.569771 0.183660 -0.744632 -0.279239 -1.053637 -0.126916 -0.205148 0.029357 -0.107589 -0.228879 0.019291 -0.460038 0.440480 1.507626 -0.186313 0.109406 -0.020841 0.076110 -0.130987 0.002899 -0.241801 0.529755 0.476902 -0.421026 -1.039666 0.554323 -1.114878 -0.090157 1.242123 0.389631 0.998968 -0.031748 -0.147467 1.333552 0.837958 -2.293127 -3.583265 3.755649 -0.712611 -3.959859 1.803199 -9.340906 3.068426 2.934305 -13.034703 
0.003483 0.954644 0.007305 0.000468 0.243512 0.248078 -0.014254 0.020097 0.135575 -0.581204 0.194011 -0.902927 -0.262681 -0.978191 -0.108323 -0.226904 0.032949 -0.121361 -0.257908 0.025710 -0.383267 0.439623 1.556333 -0.277260 0.184720 -0.029916 0.062353 -0.196172 0.007329 -0.200412 0.500826 0.514167 -0.545802 -0.855062 0.438988 -1.275600 -0.185548 1.418470 0.435753 1.088131 -0.013570 -0.002346 1.551899 1.004832 -2.446875 -4.312593 4.339640 -0.852243 -4.846521 2.030649 -11.102310 3.428312 3.321592 -14.999555 
0.004176 0.954498 0.007869 -0.023691 0.263134 0.254324 -0.063289 0.029042 0.201135 -0.606864 0.208618 -1.076804 -0.241180 -0.877448 -0.081588 -0.224752 0.041657 -0.162592 -0.291423 0.032735 -0.308844 0.440327 1.617894 -0.381475 0.281057 -0.040055 0.027133 -0.288188 0.013385 -0.155580 0.480753 0.553536 -0.681177 -0.661753 0.317947 -1.464699 -0.264283 1.539986 0.465917 1.208842 0.006818 0.164648 1.786713 1.190674 -2.556211 -5.236298 4.940096 -1.011870 -6.043810 2.214936 -13.183216 3.778600 3.686003 -17.133503 
0.004952 0.954458 0.008372 -0.059085 0.280986 0.282895 -0.109554 0.033838 0.238553 -0.645310 0.226182 -1.247783 -0.225348 -0.832041 -0.087243 -0.228513 0.055200 -0.225729 -0.313729 0.036535 -0.288475 0.459938 1.739405 -0.482769 0.385589 -0.049525 -0.028765 -0.425364 0.021726 -0.126438 0.488058 0.603649 -0.808299 -0.502055 0.213904 -1.719103 -0.317940 1.626088 0.487414 1.346290 0.022253 0.298144 2.030264 1.402115 -2.475327 -6.483162 5.568526 -1.204322 -7.733290 2.308150 -15.755806 4.105744 3.917907 -19.701214 
0.005871 0.954539 0.008762 -0.102425 0.289129 0.328888 -0.135098 0.033477 0.239261 -0.702252 0.246643 -1.384979 -0.210954 -0.837135 -0.133386 -0.240286 0.073734 -0.311276 -0.324250 0.036967 -0.322865 0.501607 1.898502 -0.524171 0.497257 -0.061928 -0.059872 -0.604541 0.030850 -0.168858 0.524356 0.661595 -0.880200 -0.355054 0.113052 -2.082170 -0.338423 1.669490 0.498943 1.451586 0.030154 0.371642 2.240516 1.607120 -2.146879 -8.073277 6.174226 -1.425929 -9.839399 2.263354 -18.734661 4.317158 3.716958 -22.657393 
0.006941 0.954731 0.009016 -0.150758 0.294328 0.368498 -0.153515 0.029628 0.216101 -0.762632 0.266574 -1.495072 -0.195655 -0.852288 -0.191019 -0.258929 0.094592 -0.406957 -0.326680 0.035883 -0.368931 0.553387 2.046396 -0.489696 0.611780 -0.078742 -0.042772 -0.821958 0.039133 -0.323792 0.574720 0.716905 -0.859473 -0.137241 -0.029947 -2.527101 -0.326996 1.635395 0.489372 1.455585 0.030963 0.378407 2.450717 1.832572 -1.551377 -9.929883 6.719148 -1.667707 -12.253989 2.025061 -21.921794 4.319890 2.743439 -25.655103 
0.008144 0.955059 0.009166 -0.195475 0.305920 0.385829 -0.186745 0.025859 0.195349 -0.810838 0.283742 -1.613009 -0.167544 -0.819828 -0.243777 -0.268118 0.113354 -0.494116 -0.354321 0.038590 -0.407554 0.600694 2.155165 -0.413827 0.722927 -0.101036 0.043019 -1.059141 0.044874 -0.588921 0.599868 0.757349 -0.756269 0.148250 -0.207393 -2.948758 -0.274748 1.530525 0.461758 1.353284 0.026724 0.333442 2.689917 2.090769 -0.790227 -11.910625 7.191023 -1.918277 -14.811858 1.566907 -25.026139 4.076720 0.777165 -28.285447 
0.009438 0.955466 0.009265 -0.235571 0.324008 0.388895 -0.234606 0.026909 0.208119 -0.842082 0.298446 -1.771183 -0.110817 -0.702219 -0.304571 -0.257790 0.126323 -0.556474 -0.400003 0.043719 -0.449393 0.643473 2.237502 -0.318754 0.835578 -0.127624 0.173863 -1.305157 0.049364 -0.874246 0.573765 0.777581 -0.654016 0.558602 -0.449661 -3.333338 -0.215434 1.371021 0.417374 1.202194 0.026510 0.314356 2.961434 2.369499 -0.018914 -13.884673 7.564968 -2.159217 -17.359752 0.902720 -27.768759 3.638445 -2.048423 -30.295515 
0.010774 0.955947 0.009368 -0.261008 0.350038 0.392462 -0.314287 0.027686 0.222878 -0.843895 0.305604 -1.922299 -0.022334 -0.505520 -0.388255 -0.244716 0.136562 -0.606266 -0.449318 0.049593 -0.482869 0.683633 2.323545 -0.245053 0.917169 -0.151225 0.316279 -1.544360 0.053894 -1.109228 0.513589 0.776069 -0.618765 1.061243 -0.737313 -3.666459 -0.171394 1.170910 0.358199 1.079806 0.034575 0.361579 3.220415 2.621996 0.618031 -15.786626 7.784608 -2.363220 -19.853031 0.057398 -30.015250 3.071983 -5.418767 -31.650802 
